<svg width="99" height="16" viewBox="0 0 99 16" fill="none" xmlns="http://www.w3.org/2000/svg">
<path d="M0.66 15V0.999999H3.34L11.6 11.08H10.3V0.999999H13.5V15H10.84L2.56 4.92H3.86V15H0.66ZM23.0323 15.24C21.0457 15.24 19.4923 14.6867 18.3723 13.58C17.2523 12.4733 16.6923 10.8933 16.6923 8.84V0.999999H19.9323V8.72C19.9323 10.0533 20.2057 11.0133 20.7523 11.6C21.299 12.1867 22.0657 12.48 23.0523 12.48C24.039 12.48 24.8057 12.1867 25.3523 11.6C25.899 11.0133 26.1723 10.0533 26.1723 8.72V0.999999H29.3723V8.84C29.3723 10.8933 28.8123 12.4733 27.6923 13.58C26.5723 14.6867 25.019 15.24 23.0323 15.24Z" fill="#CE0003"/>
<path d="M37.1741 15.24C36.0541 15.24 34.9807 15.0933 33.9541 14.8C32.9274 14.4933 32.1007 14.1 31.4741 13.62L32.5741 11.18C33.1741 11.6067 33.8807 11.96 34.6941 12.24C35.5207 12.5067 36.3541 12.64 37.1941 12.64C37.8341 12.64 38.3474 12.58 38.7341 12.46C39.1341 12.3267 39.4274 12.1467 39.6141 11.92C39.8007 11.6933 39.8941 11.4333 39.8941 11.14C39.8941 10.7667 39.7474 10.4733 39.4541 10.26C39.1607 10.0333 38.7741 9.85333 38.2941 9.72C37.8141 9.57333 37.2807 9.44 36.6941 9.32C36.1207 9.18667 35.5407 9.02667 34.9541 8.84C34.3807 8.65333 33.8541 8.41333 33.3741 8.12C32.8941 7.82667 32.5007 7.44 32.1941 6.96C31.9007 6.48 31.7541 5.86667 31.7541 5.12C31.7541 4.32 31.9674 3.59333 32.3941 2.94C32.8341 2.27333 33.4874 1.74667 34.3541 1.36C35.2341 0.96 36.3341 0.76 37.6541 0.76C38.5341 0.76 39.4007 0.866666 40.2541 1.08C41.1074 1.28 41.8607 1.58667 42.5141 2L41.5141 4.46C40.8607 4.08667 40.2074 3.81333 39.5541 3.64C38.9007 3.45333 38.2607 3.36 37.6341 3.36C37.0074 3.36 36.4941 3.43333 36.0941 3.58C35.6941 3.72667 35.4074 3.92 35.2341 4.16C35.0607 4.38667 34.9741 4.65333 34.9741 4.96C34.9741 5.32 35.1207 5.61333 35.4141 5.84C35.7074 6.05333 36.0941 6.22667 36.5741 6.36C37.0541 6.49333 37.5807 6.62667 38.1541 6.76C38.7407 6.89333 39.3207 7.04667 39.8941 7.22C40.4807 7.39333 41.0141 7.62667 41.4941 7.92C41.9741 8.21333 42.3607 8.6 42.6541 9.08C42.9607 9.56 43.1141 10.1667 43.1141 10.9C43.1141 11.6867 42.8941 12.4067 42.4541 13.06C42.0141 13.7133 41.3541 14.24 40.4741 14.64C39.6074 15.04 38.5074 15.24 37.1741 15.24ZM48.308 6.64H55.048V9.16H48.308V6.64ZM48.548 12.4H56.168V15H45.328V0.999999H55.908V3.6H48.548V12.4ZM58.7459 15V0.999999H61.4259L69.6859 11.08H68.3859V0.999999H71.5859V15H68.9259L60.6459 4.92H61.9459V15H58.7459ZM79.4983 15.24C78.3783 15.24 77.3049 15.0933 76.2783 14.8C75.2516 14.4933 74.4249 14.1 73.7983 13.62L74.8983 11.18C75.4983 11.6067 76.2049 11.96 77.0183 12.24C77.8449 12.5067 78.6783 12.64 79.5183 12.64C80.1583 12.64 80.6716 12.58 81.0583 12.46C81.4583 12.3267 81.7516 12.1467 81.9383 11.92C82.1249 11.6933 82.2183 11.4333 82.2183 11.14C82.2183 10.7667 82.0716 10.4733 81.7783 10.26C81.4849 10.0333 81.0983 9.85333 80.6183 9.72C80.1383 9.57333 79.6049 9.44 79.0183 9.32C78.4449 9.18667 77.8649 9.02667 77.2783 8.84C76.7049 8.65333 76.1783 8.41333 75.6983 8.12C75.2183 7.82667 74.8249 7.44 74.5183 6.96C74.2249 6.48 74.0783 5.86667 74.0783 5.12C74.0783 4.32 74.2916 3.59333 74.7183 2.94C75.1583 2.27333 75.8116 1.74667 76.6783 1.36C77.5583 0.96 78.6583 0.76 79.9783 0.76C80.8583 0.76 81.7249 0.866666 82.5783 1.08C83.4316 1.28 84.1849 1.58667 84.8383 2L83.8383 4.46C83.1849 4.08667 82.5316 3.81333 81.8783 3.64C81.2249 3.45333 80.5849 3.36 79.9583 3.36C79.3316 3.36 78.8183 3.43333 78.4183 3.58C78.0183 3.72667 77.7316 3.92 77.5583 4.16C77.3849 4.38667 77.2983 4.65333 77.2983 4.96C77.2983 5.32 77.4449 5.61333 77.7383 5.84C78.0316 6.05333 78.4183 6.22667 78.8983 6.36C79.3783 6.49333 79.9049 6.62667 80.4783 6.76C81.0649 6.89333 81.6449 7.04667 82.2183 7.22C82.8049 7.39333 83.3383 7.62667 83.8183 7.92C84.2983 8.21333 84.6849 8.6 84.9783 9.08C85.2849 9.56 85.4383 10.1667 85.4383 10.9C85.4383 11.6867 85.2183 12.4067 84.7783 13.06C84.3383 13.7133 83.6783 14.24 82.7983 14.64C81.9316 15.04 80.8316 15.24 79.4983 15.24ZM90.6322 6.64H97.3722V9.16H90.6322V6.64ZM90.8722 12.4H98.4922V15H87.6522V0.999999H98.2322V3.6H90.8722V12.4Z" fill="#564646"/>
</svg>
